<?xml version="1.0" encoding="UTF-8"?>
<svg xmlns="http://www.w3.org/2000/svg" xmlns:xlink="http://www.w3.org/1999/xlink" viewBox="0 0 670 432">
  <defs>
    <style>
      .cls-1 {
        letter-spacing: 0em;
      }

      .cls-2, .cls-3, .cls-4, .cls-5, .cls-6, .cls-7, .cls-8, .cls-9 {
        font-family: MontserratRoman-Medium, Montserrat;
        font-variation-settings: 'wght' 500;
        font-weight: 500;
      }

      .cls-2, .cls-10, .cls-9, .cls-11 {
        fill: #1d262d;
      }

      .cls-2, .cls-12, .cls-11 {
        font-size: 5px;
      }

      .cls-13, .cls-14 {
        stroke: #61d1e5;
      }

      .cls-13, .cls-14, .cls-15, .cls-16 {
        stroke-miterlimit: 10;
        stroke-width: .5px;
      }

      .cls-13, .cls-3, .cls-17, .cls-4, .cls-18, .cls-19 {
        fill: #fff;
      }

      .cls-14, .cls-15, .cls-16 {
        fill: none;
      }

      .cls-20, .cls-21, .cls-22 {
        fill: #f2f5fa;
      }

      .cls-3, .cls-8, .cls-19 {
        font-size: 8.83px;
      }

      .cls-23 {
        fill: #b1adde;
      }

      .cls-24, .cls-25, .cls-26, .cls-27, .cls-28 {
        fill: #848484;
      }

      .cls-4 {
        font-size: 10.13px;
      }

      .cls-29 {
        font-size: 7px;
      }

      .cls-29, .cls-30, .cls-25, .cls-18, .cls-26, .cls-31, .cls-32, .cls-33, .cls-34, .cls-27 {
        font-weight: 300;
      }

      .cls-29, .cls-30, .cls-25, .cls-18, .cls-26, .cls-31, .cls-32, .cls-34, .cls-27 {
        font-family: Montserrat-Light, 'Montserrat Light';
      }

      .cls-29, .cls-30, .cls-32, .cls-33, .cls-34 {
        fill: #617087;
      }

      .cls-30 {
        font-size: 5.4px;
      }

      .cls-25, .cls-7 {
        font-size: 4.55px;
      }

      .cls-10, .cls-12, .cls-19, .cls-11, .cls-28 {
        font-family: MontserratRoman-Regular, Montserrat;
        font-variation-settings: 'wght' 400;
      }

      .cls-10, .cls-9 {
        font-size: 14px;
      }

      .cls-5 {
        fill: #0c0c4f;
        font-size: 15.13px;
      }

      .cls-35 {
        isolation: isolate;
      }

      .cls-6 {
        font-size: 9.25px;
      }

      .cls-6, .cls-36 {
        fill: #1ddba9;
      }

      .cls-37 {
        letter-spacing: 0em;
      }

      .cls-38 {
        fill: #ef4635;
      }

      .cls-39 {
        fill: #dcf6fa;
      }

      .cls-40, .cls-21 {
        font-family: Montserrat-SemiBold, 'Montserrat SemiBold';
        font-size: 5.32px;
        font-weight: 600;
      }

      .cls-41, .cls-12 {
        fill: #61d1e5;
      }

      .cls-7, .cls-42, .cls-43 {
        fill: #4a3dff;
      }

      .cls-44 {
        letter-spacing: -.04em;
      }

      .cls-18 {
        font-size: 10px;
      }

      .cls-8, .cls-45 {
        fill: #668fff;
      }

      .cls-46 {
        filter: url(#drop-shadow-2);
      }

      .cls-46, .cls-47 {
        fill: #f9fbfc;
      }

      .cls-48 {
        letter-spacing: -.02em;
      }

      .cls-49 {
        fill: #fdfeff;
      }

      .cls-26 {
        font-size: 5.25px;
      }

      .cls-50 {
        letter-spacing: -.03em;
      }

      .cls-51 {
        letter-spacing: -.02em;
      }

      .cls-31 {
        fill: #f2f2f2;
        font-size: 1.43px;
      }

      .cls-52 {
        fill: #2c2e36;
        font-family: Montserrat-ExtraLight, 'Montserrat ExtraLight';
        font-size: 3.93px;
        font-weight: 200;
      }

      .cls-47 {
        filter: url(#drop-shadow-3);
      }

      .cls-32 {
        font-size: 3.54px;
      }

      .cls-42 {
        mix-blend-mode: multiply;
      }

      .cls-15 {
        stroke: #c6c9cc;
      }

      .cls-53 {
        fill: #e7e6e8;
      }

      .cls-33 {
        font-family: MontserratRoman-Light, Montserrat;
        font-size: 3.67px;
        font-variation-settings: 'wght' 300;
      }

      .cls-54 {
        letter-spacing: 0em;
      }

      .cls-34 {
        font-size: 4.49px;
      }

      .cls-16 {
        stroke: #545f75;
      }

      .cls-27 {
        font-size: 6.82px;
      }

      .cls-55 {
        letter-spacing: 0em;
      }

      .cls-56 {
        letter-spacing: 0em;
      }

      .cls-22 {
        filter: url(#drop-shadow-1);
      }

      .cls-28 {
        font-size: 7.35px;
      }

      .cls-57 {
        letter-spacing: -.03em;
      }
    </style>
    <filter id="drop-shadow-1" filterUnits="userSpaceOnUse">
      <feOffset dx="5" dy="7"/>
      <feGaussianBlur result="blur" stdDeviation="5"/>
      <feFlood flood-color="#ad9bbc" flood-opacity=".45"/>
      <feComposite in2="blur" operator="in"/>
      <feComposite in="SourceGraphic"/>
    </filter>
    <filter id="drop-shadow-2" filterUnits="userSpaceOnUse">
      <feOffset dx="0" dy="0"/>
      <feGaussianBlur result="blur-2" stdDeviation="4"/>
      <feFlood flood-color="#2e1782" flood-opacity=".1"/>
      <feComposite in2="blur-2" operator="in"/>
      <feComposite in="SourceGraphic"/>
    </filter>
    <filter id="drop-shadow-3" filterUnits="userSpaceOnUse">
      <feOffset dx="0" dy="0"/>
      <feGaussianBlur result="blur-3" stdDeviation="4"/>
      <feFlood flood-color="#2e1782" flood-opacity=".1"/>
      <feComposite in2="blur-3" operator="in"/>
      <feComposite in="SourceGraphic"/>
    </filter>
  </defs>
  <g class="cls-35">
    <g id="Layer_2" data-name="Layer 2">
      <g id="BACKGROUND">
        <rect class="cls-22" x="10.79" y="8.36" width="638.62" height="401.33" rx="17.19" ry="17.19"/>
      </g>
      <g id="OBJECTS">
        <g>
          <rect class="cls-20" x="10.79" y="8.36" width="638.62" height="401.33" rx="17.19" ry="17.19"/>
          <path class="cls-45" d="m27.97,8.36h604.24c9.49,0,17.19,7.7,17.19,17.19v19.23H10.79v-19.23c0-9.49,7.7-17.19,17.19-17.19Z"/>
          <path class="cls-42" d="m27.97,8.36h116.74v401.33H27.97c-9.49,0-17.19-7.7-17.19-17.19V25.55c0-9.49,7.7-17.19,17.19-17.19Z"/>
        </g>
        <text class="cls-4" transform="translate(55.92 29.93)"><tspan x="0" y="0">FeeMinder</tspan></text>
        <g>
          <path class="cls-49" d="m620.42,25.57c0,6.35-5.15,11.5-11.5,11.5s-11.5-5.15-11.5-11.5,5.15-11.5,11.5-11.5,11.5,5.15,11.5,11.5Z"/>
          <path class="cls-53" d="m611.13,28.13c1.13-.73,1.88-2,1.88-3.44,0-2.26-1.83-4.09-4.09-4.09s-4.09,1.83-4.09,4.09c0,1.45.75,2.71,1.88,3.44-2.67.24-4.77,2.49-4.77,5.21v1.35c1.94,1.48,4.35,2.37,6.97,2.37s5.04-.89,6.97-2.37v-1.35c0-2.73-2.1-4.97-4.76-5.21Z"/>
        </g>
        <text class="cls-5" transform="translate(163.84 81.05)"><tspan x="0" y="0">Overview</tspan></text>
        <g>
          <rect class="cls-49" x="160.14" y="17.51" width="128.44" height="17.78" rx="7.59" ry="7.59"/>
          <text class="cls-28" transform="translate(170.97 28.58)"><tspan x="0" y="0">Search</tspan></text>
          <g>
            <path class="cls-24" d="m278.42,29.07l-1.8-1.8c-.27.42-.62.77-1.04,1.04l1.8,1.8c.29.29.75.29,1.04,0,.29-.29.29-.75,0-1.04Z"/>
            <path class="cls-24" d="m276.67,25.42c0-1.63-1.32-2.95-2.95-2.95s-2.95,1.32-2.95,2.95,1.32,2.95,2.95,2.95,2.95-1.32,2.95-2.95Zm-2.95,2.21c-1.22,0-2.21-.99-2.21-2.21s.99-2.21,2.21-2.21,2.21.99,2.21,2.21-.99,2.21-2.21,2.21Z"/>
          </g>
        </g>
        <g>
          <rect class="cls-23" x="26.05" y="21.44" width="17.23" height="1.18"/>
          <rect class="cls-23" x="26.05" y="25.4" width="17.23" height="1.18"/>
          <rect class="cls-23" x="26.05" y="29.37" width="17.23" height="1.18"/>
        </g>
        <text class="cls-18" transform="translate(521.18 30.71)"><tspan x="0" y="0">Hi, Laura Jane</tspan></text>
        <g>
          <path class="cls-45" d="m39.04,94.03c-.31-.36-.87-.36-1.18,0l-5.68,6.54h2.35v4.74c0,.43.35.77.77.77h6.3c.43,0,.77-.35.77-.77v-4.74h2.35l-5.68-6.54Zm.52,11.62h-2.22v-2.36c0-.61.5-1.11,1.11-1.11s1.11.5,1.11,1.11v2.36Z"/>
          <text class="cls-8" transform="translate(52.72 104.85)"><tspan x="0" y="0">Dashboard</tspan></text>
        </g>
        <g>
          <path class="cls-23" d="m39.6,170.24c.59-.38.99-1.04.99-1.8,0-1.18-.96-2.14-2.14-2.14s-2.14.96-2.14,2.14c0,.76.39,1.42.99,1.8-1.4.12-2.49,1.3-2.49,2.73v2.26s.16.05.16.05c1.44.45,2.69.6,3.73.6,2.01,0,3.18-.57,3.25-.61l.14-.07h.01v-2.22c0-1.43-1.1-2.6-2.49-2.73Z"/>
          <text class="cls-3" transform="translate(52.73 173.69)"><tspan x="0" y="0">Account</tspan></text>
        </g>
        <g>
          <g>
            <path class="cls-23" d="m37.88,205.62h5.07c0,2.8-2.27,5.07-5.07,5.07s-5.07-2.27-5.07-5.07,2.27-5.07,5.07-5.07v5.07Z"/>
            <path class="cls-23" d="m39.02,204.76h5.07c0-2.8-2.27-5.07-5.07-5.07v5.07Z"/>
          </g>
          <text class="cls-3" transform="translate(52.72 207.8)"><tspan x="0" y="0">Chart</tspan></text>
        </g>
        <g>
          <path class="cls-23" d="m43.54,241.8l-3.2-6.24c-.79-1.54-2.99-1.54-3.78,0l-3.2,6.24c-.72,1.41.3,3.09,1.89,3.09h6.39c1.59,0,2.61-1.68,1.89-3.09Zm-5.64-4.56h1.11v1.6c0,.48-.02.91-.05,1.31-.03.4-.08.79-.13,1.2h-.74c-.06-.4-.1-.8-.14-1.2-.03-.4-.05-.83-.05-1.3v-1.6Zm1.04,5.88c-.13.13-.3.19-.49.19s-.35-.06-.49-.19c-.13-.13-.2-.29-.2-.49s.07-.37.2-.49c.13-.13.3-.19.49-.19s.36.06.49.19c.13.13.2.29.2.49s-.07.36-.2.49Z"/>
          <text class="cls-3" transform="translate(52.72 242.25)"><tspan x="0" y="0">Reports</tspan></text>
        </g>
        <g>
          <g>
            <path class="cls-23" d="m38.45,138.17l-1.31-1.15-3.74,3.21c.14.13.32.21.52.21h9.06c.2,0,.38-.08.52-.21l-3.74-3.21-1.31,1.15Z"/>
            <path class="cls-23" d="m43.5,133.08c-.14-.13-.32-.21-.52-.21h-9.06c-.2,0-.38.08-.52.21l5.05,4.33,5.05-4.33Z"/>
            <polygon class="cls-23" points="33.16 133.54 33.16 139.82 36.81 136.72 33.16 133.54"/>
            <polygon class="cls-23" points="40.09 136.72 43.74 139.82 43.74 133.54 40.09 136.72"/>
          </g>
          <text class="cls-3" transform="translate(52.72 139.27)"><tspan x="0" y="0">Messages</tspan></text>
          <rect class="cls-38" x="103.72" y="130.84" width="12.39" height="11.64" rx="1.26" ry="1.26"/>
          <text class="cls-19" transform="translate(107.83 139.27)"><tspan x="0" y="0">3</tspan></text>
        </g>
        <g>
          <rect class="cls-17" x="430.25" y="98.96" width="199.13" height="86.87" rx="7.52" ry="7.52"/>
          <g>
            <text class="cls-6" transform="translate(454.38 165.89)"><tspan x="0" y="0">$ 3,124</tspan></text>
            <text class="cls-32" transform="translate(453.23 174.4)"><tspan x="0" y="0">*lorem ipsum dolor</tspan></text>
            <text class="cls-32" transform="translate(512.19 174.4)"><tspan x="0" y="0">*lorem ipsum dolor</tspan></text>
            <text class="cls-6" transform="translate(507.17 164.92)"><tspan x="0" y="0">1,340,230</tspan></text>
            <text class="cls-32" transform="translate(573.26 172.07)"><tspan x="0" y="0">*lorem ipsum dolor</tspan></text>
            <text class="cls-6" transform="translate(572.01 164.92)"><tspan x="0" y="0">135,020</tspan></text>
            <text class="cls-30" transform="translate(514.07 130)"><tspan x="0" y="0">Downloads</tspan></text>
            <text class="cls-30" transform="translate(458.49 130)"><tspan x="0" y="0">Earnings</tspan></text>
            <text class="cls-30" transform="translate(578.49 130)"><tspan x="0" y="0">Favorites</tspan></text>
            <path class="cls-43" d="m476.49,145.42c0,2.23-1.69,3.55-4.03,3.85v2.77h-2.14v-2.77c-1.77-.2-3.44-.95-4.66-1.99l1.17-2.4c1.34,1.19,3.23,1.95,4.61,1.95,1.21,0,1.93-.45,1.93-1.25,0-2.45-6.93-1.02-6.93-5.63,0-2.04,1.52-3.44,3.88-3.77v-2.64h2.14v2.62c1.49.15,2.9.65,3.96,1.36l-1.13,2.43c-1.38-.82-3.01-1.34-4.05-1.34-.98,0-1.65.35-1.65,1.06,0,2.4,6.93,1.06,6.91,5.74Z"/>
            <polygon class="cls-43" points="533.94 143.77 533.94 135.97 527.99 135.97 527.99 143.77 525.35 143.77 530.97 150.51 536.59 143.77 533.94 143.77"/>
            <polygon class="cls-43" points="590.2 134.57 592.37 139.79 598 140.23 593.71 143.91 595.02 149.4 590.2 146.45 585.38 149.4 586.7 143.91 582.4 140.23 588.04 139.79 590.2 134.57"/>
          </g>
          <text class="cls-29" transform="translate(444.21 112.53)"><tspan x="0" y="0">Calculation</tspan></text>
        </g>
        <g>
          <rect class="cls-17" x="162.06" y="98.96" width="262.88" height="131.22" rx="7.52" ry="7.52"/>
          <g>
            <text class="cls-33" transform="translate(178.78 197.27)"><tspan x="0" y="0">1000</tspan></text>
            <text class="cls-33" transform="translate(178.78 182.52)"><tspan x="0" y="0">1500</tspan></text>
            <text class="cls-33" transform="translate(178.78 167.77)"><tspan x="0" y="0">2000</tspan></text>
            <text class="cls-33" transform="translate(178.78 153.02)"><tspan x="0" y="0">2500</tspan></text>
            <text class="cls-33" transform="translate(178.78 138.15)"><tspan x="0" y="0">3000</tspan></text>
            <text class="cls-33" transform="translate(198.6 211)"><tspan x="0" y="0">01</tspan></text>
            <text class="cls-33" transform="translate(227.01 211)"><tspan x="0" y="0">02</tspan></text>
            <text class="cls-33" transform="translate(255.43 211)"><tspan x="0" y="0">03</tspan></text>
            <text class="cls-33" transform="translate(283.93 211)"><tspan x="0" y="0">04 </tspan></text>
            <text class="cls-33" transform="translate(312.27 211)"><tspan x="0" y="0">05</tspan></text>
            <text class="cls-33" transform="translate(338.42 211)"><tspan x="0" y="0">06</tspan></text>
            <text class="cls-33" transform="translate(369.1 211)"><tspan x="0" y="0">07</tspan></text>
            <text class="cls-33" transform="translate(397.52 211)"><tspan x="0" y="0">08</tspan></text>
            <line class="cls-16" x1="200.86" y1="207.59" x2="200.86" y2="205.32"/>
            <line class="cls-16" x1="229.28" y1="207.59" x2="229.28" y2="205.32"/>
            <line class="cls-16" x1="257.69" y1="207.59" x2="257.69" y2="205.32"/>
            <line class="cls-16" x1="286.11" y1="207.59" x2="286.11" y2="205.32"/>
            <line class="cls-16" x1="314.53" y1="207.59" x2="314.53" y2="205.32"/>
            <line class="cls-16" x1="340.68" y1="207.59" x2="340.68" y2="205.32"/>
            <line class="cls-16" x1="371.36" y1="207.59" x2="371.36" y2="205.32"/>
            <line class="cls-16" x1="399.78" y1="207.59" x2="399.78" y2="205.32"/>
            <line class="cls-15" x1="193.91" y1="151.93" x2="408.23" y2="151.93"/>
            <line class="cls-15" x1="193.91" y1="166.68" x2="408.23" y2="166.68"/>
            <line class="cls-15" x1="193.91" y1="137.07" x2="408.23" y2="137.07"/>
            <line class="cls-15" x1="193.91" y1="181.43" x2="408.23" y2="181.43"/>
            <line class="cls-15" x1="193.91" y1="196.18" x2="408.23" y2="196.18"/>
            <path class="cls-17" d="m284.31,161.85c-.81,0-1.46-.67-1.46-1.49s.66-1.49,1.46-1.49,1.46.67,1.46,1.49-.66,1.49-1.46,1.49Z"/>
            <g>
              <polygon class="cls-36" points="199.58 196.4 192.92 196.4 193.33 173.51 199.98 173.51 199.58 196.4"/>
              <polygon class="cls-43" points="208.8 196.4 202.14 196.4 202.55 160.47 209.2 160.47 208.8 196.4"/>
            </g>
            <g>
              <rect class="cls-36" x="221.38" y="172.04" width="6.79" height="24.36"/>
              <rect class="cls-43" x="230.79" y="161.68" width="6.79" height="34.72"/>
            </g>
            <g>
              <rect class="cls-36" x="249.96" y="156.62" width="6.66" height="39.78"/>
              <rect class="cls-43" x="259.18" y="148.49" width="6.66" height="47.91"/>
            </g>
            <g>
              <rect class="cls-36" x="278.38" y="143.6" width="6.66" height="52.8"/>
              <rect class="cls-43" x="287.6" y="138.02" width="6.66" height="58.38"/>
            </g>
            <g>
              <rect class="cls-36" x="306.79" y="168.96" width="6.66" height="27.44"/>
              <rect class="cls-43" x="316.01" y="162.4" width="6.66" height="34"/>
            </g>
            <g>
              <rect class="cls-36" x="332.95" y="146.21" width="6.66" height="50.19"/>
              <rect class="cls-43" x="342.17" y="161.68" width="6.66" height="34.72"/>
            </g>
            <g>
              <rect class="cls-36" x="363.63" y="137.57" width="6.66" height="58.83"/>
              <rect class="cls-43" x="372.85" y="144.08" width="6.66" height="52.31"/>
            </g>
            <g>
              <rect class="cls-36" x="392.05" y="159.4" width="6.66" height="36.99"/>
              <rect class="cls-43" x="401.27" y="138.93" width="6.66" height="57.47"/>
            </g>
          </g>
          <text class="cls-29" transform="translate(177.42 112.53)"><tspan x="0" y="0">Average Charts</tspan></text>
        </g>
        <g>
          <rect class="cls-17" x="430.25" y="190.88" width="128.43" height="145.7" rx="7.52" ry="7.52"/>
          <g>
            <text class="cls-27" transform="translate(440.55 207.78)"><tspan x="0" y="0">Analitycal</tspan></text>
            <text class="cls-25" transform="translate(440.55 223.71)"><tspan x="0" y="0">Lorem ipsum</tspan></text>
            <text class="cls-25" transform="translate(538.48 223.71)"><tspan x="0" y="0">98%</tspan></text>
            <text class="cls-25" transform="translate(440.55 235.55)"><tspan x="0" y="0">Dolor sit</tspan></text>
            <text class="cls-25" transform="translate(538.48 235.55)"><tspan x="0" y="0">50%</tspan></text>
            <rect class="cls-36" x="477.62" y="234" width="28.1" height="3"/>
            <text class="cls-25" transform="translate(440.55 247.39)"><tspan x="0" y="0">Consectetuer</tspan></text>
            <text class="cls-25" transform="translate(538.48 247.39)"><tspan x="0" y="0">20%</tspan></text>
            <rect class="cls-43" x="477.62" y="245.84" width="6.81" height="3"/>
            <rect class="cls-43" x="477.62" y="222.17" width="55.13" height="3"/>
            <text class="cls-25" transform="translate(440.55 259.23)"><tspan x="0" y="0">Adipiscing</tspan></text>
            <text class="cls-25" transform="translate(538.48 259.23)"><tspan x="0" y="0">45%</tspan></text>
            <rect class="cls-36" x="477.62" y="257.68" width="25.67" height="3"/>
            <text class="cls-25" transform="translate(440.55 271.06)"><tspan x="0" y="0">Sed Diam</tspan></text>
            <text class="cls-25" transform="translate(538.48 271.06)"><tspan x="0" y="0">30%</tspan></text>
            <rect class="cls-43" x="477.62" y="269.52" width="13.01" height="3"/>
            <text class="cls-25" transform="translate(440.55 282.9)"><tspan x="0" y="0">Nonummy</tspan></text>
            <text class="cls-25" transform="translate(538.48 282.9)"><tspan x="0" y="0">80%</tspan></text>
            <rect class="cls-36" x="477.62" y="281.36" width="43.73" height="3"/>
            <text class="cls-25" transform="translate(440.55 294.74)"><tspan x="0" y="0">Nibh Euismod</tspan></text>
            <text class="cls-25" transform="translate(538.48 294.74)"><tspan x="0" y="0">39%</tspan></text>
            <rect class="cls-43" x="477.62" y="293.2" width="23.25" height="3"/>
            <text class="cls-25" transform="translate(440.55 306.58)"><tspan x="0" y="0">Ullamcorper</tspan></text>
            <text class="cls-25" transform="translate(538.48 306.58)"><tspan x="0" y="0">65%</tspan></text>
            <rect class="cls-36" x="477.62" y="305.04" width="36.45" height="3"/>
          </g>
        </g>
        <g>
          <rect class="cls-17" x="564.05" y="190.88" width="65.32" height="145.7" rx="7.52" ry="7.52"/>
          <g>
            <g>
              <path class="cls-43" d="m596.71,231.63c-9,0-16.33-7.32-16.33-16.33s7.32-16.33,16.33-16.33,16.33,7.32,16.33,16.33-7.32,16.33-16.33,16.33Zm0-30.08c-7.58,0-13.75,6.17-13.75,13.75s6.17,13.75,13.75,13.75,13.75-6.17,13.75-13.75-6.17-13.75-13.75-13.75Z"/>
              <circle class="cls-43" cx="596.71" cy="215.31" r="10.75"/>
              <g>
                <text class="cls-40" transform="translate(590.69 216.27)"><tspan x="0" y="0">75%</tspan></text>
                <text class="cls-21" transform="translate(590.69 216.27)"><tspan x="0" y="0">75%</tspan></text>
              </g>
              <text class="cls-31" transform="translate(591.64 219.17)"><tspan x="0" y="0">Your Text Here</tspan></text>
            </g>
            <text class="cls-34" transform="translate(587.21 238.68)"><tspan x="0" y="0">Chart 01</tspan></text>
            <g>
              <path class="cls-36" d="m596.71,275.46c-9,0-16.33-7.32-16.33-16.33s7.32-16.33,16.33-16.33,16.33,7.32,16.33,16.33-7.32,16.33-16.33,16.33Zm0-30.08c-7.58,0-13.75,6.17-13.75,13.75s6.17,13.75,13.75,13.75,13.75-6.17,13.75-13.75-6.17-13.75-13.75-13.75Z"/>
              <circle class="cls-43" cx="596.71" cy="259.13" r="10.75"/>
              <g>
                <text class="cls-40" transform="translate(590.69 260.09)"><tspan x="0" y="0">50%</tspan></text>
                <text class="cls-21" transform="translate(590.69 260.09)"><tspan x="0" y="0">50%</tspan></text>
              </g>
              <text class="cls-31" transform="translate(591.64 262.99)"><tspan x="0" y="0">Your Text Here</tspan></text>
              <path class="cls-43" d="m613.04,259.13c0-9-7.31-16.32-16.31-16.33v2.57c7.58,0,13.74,6.17,13.74,13.75s-6.16,13.74-13.74,13.75v2.57c8.99,0,16.31-7.33,16.31-16.33Z"/>
            </g>
            <text class="cls-34" transform="translate(587.21 282.5)"><tspan x="0" y="0">Chart 02</tspan></text>
            <g>
              <path class="cls-43" d="m596.71,319.28c-9,0-16.33-7.32-16.33-16.33s7.32-16.33,16.33-16.33,16.33,7.32,16.33,16.33-7.32,16.33-16.33,16.33Zm0-30.08c-7.58,0-13.75,6.17-13.75,13.75s6.17,13.75,13.75,13.75,13.75-6.17,13.75-13.75-6.17-13.75-13.75-13.75Z"/>
              <circle class="cls-43" cx="596.71" cy="302.95" r="10.75"/>
              <g>
                <text class="cls-40" transform="translate(590.69 303.91)"><tspan x="0" y="0">96%</tspan></text>
                <text class="cls-21" transform="translate(590.69 303.91)"><tspan x="0" y="0">96%</tspan></text>
              </g>
              <text class="cls-31" transform="translate(591.64 306.81)"><tspan x="0" y="0">Your Text Here</tspan></text>
              <path class="cls-36" d="m596,289.23v-2.57c-.43.02-.86.05-1.28.1l.31,2.55c.32-.04.64-.06.97-.08Z"/>
            </g>
            <text class="cls-34" transform="translate(587.21 326.32)"><tspan x="0" y="0">Chart 03</tspan></text>
            <path class="cls-36" d="m596.71,201.56c.09,0,.17.01.26.01v-2.57c-.09,0-.17-.01-.26-.01-8.97,0-16.27,7.28-16.32,16.24h2.57c.05-7.54,6.19-13.67,13.75-13.67Z"/>
          </g>
        </g>
        <g>
          <rect class="cls-17" x="430.25" y="342.01" width="199.13" height="46.05" rx="7.52" ry="7.52"/>
          <g>
            <text class="cls-52" transform="translate(488.39 362.97) rotate(-.24)"><tspan x="0" y="0">Lorem ipsum dolor sit amet, consectetuer adipiscing elit, sed diam nonummy </tspan><tspan x="0" y="4.72">nibh euismod tincidunt ut laoreet dolore magna aliquam erat volutpat. Ut </tspan><tspan x="0" y="9.43">wisi enim ad minim veniam, quis nostrud exerci tation ullamcorper suscipit </tspan><tspan x="0" y="14.15">lobortis.</tspan></text>
            <text class="cls-26" transform="translate(488.38 354.91)"><tspan x="0" y="0">Recent Update</tspan></text>
            <text class="cls-7" transform="translate(444.64 363.5)"><tspan x="0" y="0">01/12/2020</tspan></text>
          </g>
        </g>
        <g>
          <rect class="cls-46" x="169.1" y="279.28" width="107.5" height="80" rx="9.63" ry="9.63"/>
          <text class="cls-2" transform="translate(179.1 293.13)"><tspan class="cls-56" x="0" y="0">A</tspan><tspan class="cls-1" x="3.61" y="0">C</tspan><tspan class="cls-37" x="7.18" y="0">TIONS</tspan></text>
          <text class="cls-9" transform="translate(179.64 313.04)"><tspan class="cls-48" x="0" y="0">3,</tspan><tspan class="cls-57" x="10.49" y="0">5</tspan><tspan class="cls-50" x="18.1" y="0">2 </tspan></text>
          <g>
            <polygon class="cls-41" points="208.78 305.38 209.78 303.38 210.78 305.38 208.78 305.38"/>
            <text class="cls-12" transform="translate(211.78 305.38)"><tspan class="cls-56" x="0" y="0">5</tspan><tspan x="2.78" y="0">%</tspan></text>
          </g>
          <g>
            <polygon class="cls-39" points="266.51 323.04 253.08 328.04 232.53 323.04 212.53 333.04 192.53 353.6 179.1 349.28 169.1 349.28 169.1 359.28 276.6 359.28 276.6 323.04 266.51 323.04"/>
            <g>
              <polyline class="cls-14" points="276.6 323.04 266.51 323.04 253.08 328.04 232.53 323.04 212.53 333.04 192.53 353.6 179.1 349.28 169.1 349.28"/>
              <circle class="cls-13" cx="266.51" cy="323.04" r="2"/>
              <circle class="cls-41" cx="266.51" cy="323.04" r="1"/>
            </g>
          </g>
        </g>
        <g>
          <rect class="cls-47" x="286.6" y="279.28" width="110" height="80" rx="9.56" ry="9.56"/>
          <text class="cls-11" transform="translate(296.6 293.13)"><tspan class="cls-56" x="0" y="0">P</tspan><tspan x="3.54" y="0">ER</tspan><tspan class="cls-54" x="10.5" y="0">F</tspan><tspan class="cls-55" x="13.62" y="0">ORMANCE</tspan></text>
          <text class="cls-10" transform="translate(297.14 313.04)"><tspan class="cls-48" x="0" y="0">1</tspan><tspan class="cls-51" x="4.7" y="0">2</tspan><tspan class="cls-44" x="12.45" y="0">,</tspan><tspan class="cls-50" x="14.91" y="0">0 </tspan></text>
          <g>
            <polygon class="cls-41" points="326.28 305.38 327.28 303.38 328.28 305.38 326.28 305.38"/>
            <text class="cls-12" transform="translate(329.28 305.38)"><tspan x="0" y="0">21%</tspan></text>
          </g>
          <g>
            <polygon class="cls-39" points="384.01 323.04 370.58 335.04 350.03 343.04 330.03 336.04 310.03 337.6 296.6 329.28 286.6 329.28 286.6 359.28 396.6 359.28 396.6 323.04 384.01 323.04"/>
            <g>
              <polyline class="cls-14" points="396.6 323.04 384.01 323.04 370.58 335.04 350.03 343.04 330.03 336.04 310.03 337.6 296.6 329.28 286.6 329.28"/>
              <circle class="cls-13" cx="384.01" cy="323.04" r="2"/>
              <circle class="cls-41" cx="384.01" cy="323.04" r="1"/>
            </g>
          </g>
        </g>
      </g>
    </g>
  </g>
</svg>